PathFileType	4	(X/Y/Z)	output.trc
DataRate	CameraRate	NumFrames	NumMarkers	Units	OrigDataRate	OrigDataStartFrame	OrigNumFrames
120	120	22	17	m	120	2239	4477
Frame#	Time	Elbow_Midpoint			GH			Wrist_Midpoint			US			RS			C7			EM			EL			T8			SC			AC			AI			TS			AA			IJx			PX00			PC
		X1	Y1	Z1	X2	Y2	Z2	X3	Y3	Z3	X4	Y4	Z4	X5	Y5	Z5	X6	Y6	Z6	X7	Y7	Z7	X8	Y8	Z8	X9	Y9	Z9	X10	Y10	Z10	X11	Y11	Z11	X12	Y12	Z12	X13	Y13	Z13	X14	Y14	Z14	X15	Y15	Z15	X16	Y16	Z16	X17	Y17	Z17
2238	18.650000	0.359930	1.020928	-0.301481	0.333497	1.197500	-0.499762	0.438233	0.866244	-0.150601	0.449475	0.883436	-0.140814	0.426990	0.849052	-0.160387	0.171096	1.314843	-0.511342	0.333060	1.042656	-0.280566	0.389325	1.022700	-0.286037	0.144221	1.097120	-0.413050	0.184735	1.211430	-0.561749	0.299887	1.243488	-0.517772	0.192214	1.139794	-0.405563	0.216140	1.284795	-0.470532	0.342396	1.223924	-0.495484	0.172212	1.213918	-0.566993	0.160148	1.022670	-0.592665	0.289650	1.204528	-0.532068
2239	18.658333	0.360196	1.020523	-0.301880	0.333464	1.197306	-0.499812	0.438489	0.865643	-0.151196	0.449693	0.882831	-0.141358	0.427285	0.848455	-0.161034	0.171114	1.314854	-0.511322	0.333204	1.042147	-0.280840	0.389472	1.022217	-0.286372	0.144249	1.097148	-0.412988	0.184725	1.211432	-0.561718	0.299891	1.243390	-0.517741	0.192548	1.139629	-0.405277	0.216164	1.284615	-0.470392	0.342464	1.223901	-0.495510	0.172201	1.213921	-0.566959	0.160109	1.022669	-0.592597	0.289683	1.204404	-0.531992
2240	18.666667	0.360410	1.020037	-0.302324	0.333445	1.197124	-0.499864	0.438748	0.864906	-0.151922	0.449904	0.882088	-0.142021	0.427591	0.847723	-0.161823	0.171125	1.314861	-0.511297	0.333324	1.041569	-0.281173	0.389589	1.021649	-0.286777	0.144279	1.097171	-0.412922	0.184710	1.211431	-0.561683	0.299887	1.243290	-0.517707	0.192901	1.139449	-0.404979	0.216185	1.284425	-0.470237	0.342529	1.223880	-0.495539	0.172184	1.213920	-0.566920	0.160069	1.022666	-0.592526	0.289712	1.204280	-0.531913
2241	18.675000	0.360568	1.019463	-0.302821	0.333433	1.196956	-0.499918	0.439000	0.864018	-0.152793	0.450099	0.881193	-0.142815	0.427901	0.846842	-0.162770	0.171127	1.314862	-0.511262	0.333423	1.040912	-0.281575	0.389679	1.020991	-0.287262	0.144311	1.097184	-0.412853	0.184689	1.211426	-0.561643	0.299879	1.243192	-0.517676	0.193269	1.139247	-0.404687	0.216202	1.284222	-0.470071	0.342593	1.223861	-0.495577	0.172161	1.213914	-0.566874	0.160029	1.022658	-0.592456	0.289739	1.204158	-0.531839
2242	18.683333	0.360659	1.018798	-0.303370	0.333418	1.196798	-0.499977	0.439244	0.862966	-0.153824	0.450274	0.880133	-0.143754	0.428214	0.845799	-0.163893	0.171115	1.314854	-0.511212	0.333502	1.040171	-0.282052	0.389746	1.020242	-0.287833	0.144340	1.097180	-0.412783	0.184659	1.211416	-0.561593	0.299870	1.243097	-0.517648	0.193651	1.139019	-0.404414	0.216219	1.284007	-0.469894	0.342658	1.223843	-0.495626	0.172129	1.213904	-0.566820	0.159988	1.022647	-0.592388	0.289765	1.204041	-0.531778
2243	18.691667	0.360660	1.018038	-0.303958	0.333403	1.196646	-0.500049	0.439482	0.861740	-0.155024	0.450431	0.878895	-0.144846	0.428533	0.844585	-0.165201	0.171089	1.314837	-0.511140	0.333562	1.039338	-0.282614	0.389792	1.019402	-0.288496	0.144365	1.097156	-0.412712	0.184617	1.211402	-0.561532	0.299860	1.243003	-0.517626	0.194045	1.138759	-0.404166	0.216238	1.283779	-0.469706	0.342725	1.223823	-0.495689	0.172085	1.213890	-0.566754	0.159943	1.022633	-0.592327	0.289792	1.203929	-0.531732
2244	18.700000	0.360564	1.017182	-0.304576	0.333389	1.196498	-0.500136	0.439715	0.860331	-0.156400	0.450572	0.877470	-0.146098	0.428858	0.843192	-0.166702	0.171049	1.314809	-0.511042	0.333601	1.038411	-0.283267	0.389818	1.018470	-0.289253	0.144391	1.097108	-0.412639	0.184564	1.211384	-0.561458	0.299851	1.242912	-0.517608	0.194449	1.138468	-0.403948	0.216263	1.283538	-0.469503	0.342794	1.223799	-0.495766	0.172029	1.213872	-0.566674	0.159895	1.022618	-0.592275	0.289818	1.203824	-0.531701
2245	18.708333	0.360389	1.016230	-0.305234	0.333377	1.196349	-0.500241	0.439940	0.858734	-0.157960	0.450696	0.875851	-0.147517	0.429184	0.841616	-0.168402	0.170994	1.314768	-0.510912	0.333622	1.037385	-0.284015	0.389830	1.017446	-0.290106	0.144429	1.097031	-0.412566	0.184497	1.211362	-0.561370	0.299843	1.242823	-0.517596	0.194856	1.138147	-0.403765	0.216295	1.283289	-0.469286	0.342864	1.223766	-0.495857	0.171959	1.213850	-0.566578	0.159841	1.022603	-0.592235	0.289843	1.203727	-0.531689
2246	18.716667	0.360169	1.015184	-0.305956	0.333361	1.196192	-0.500364	0.440146	0.856950	-0.159706	0.450794	0.874039	-0.149108	0.429498	0.839861	-0.170304	0.170928	1.314715	-0.510748	0.333632	1.036258	-0.284855	0.389832	1.016331	-0.291053	0.144486	1.096923	-0.412490	0.184418	1.211337	-0.561268	0.299837	1.242739	-0.517588	0.195257	1.137801	-0.403623	0.216338	1.283036	-0.469054	0.342934	1.223724	-0.495964	0.171875	1.213824	-0.566465	0.159782	1.022587	-0.592207	0.289862	1.203641	-0.531696
2247	18.725000	0.359959	1.014049	-0.306787	0.333335	1.196022	-0.500504	0.440320	0.854997	-0.161638	0.450860	0.872049	-0.150873	0.429779	0.837946	-0.172403	0.170855	1.314651	-0.510552	0.333636	1.035032	-0.285782	0.389832	1.015130	-0.292090	0.144563	1.096788	-0.412412	0.184327	1.211310	-0.561151	0.299830	1.242662	-0.517587	0.195642	1.137435	-0.403531	0.216391	1.282787	-0.468808	0.343001	1.223672	-0.496087	0.171778	1.213797	-0.566335	0.159715	1.022573	-0.592192	0.289873	1.203572	-0.531727
2248	18.733333	0.359820	1.012833	-0.307784	0.333298	1.195841	-0.500655	0.440446	0.852910	-0.163745	0.450887	0.869914	-0.152810	0.430005	0.835905	-0.174680	0.170783	1.314580	-0.510328	0.333636	1.033715	-0.286790	0.389831	1.013846	-0.293214	0.144656	1.096632	-0.412330	0.184227	1.211282	-0.561023	0.299823	1.242597	-0.517593	0.196001	1.137052	-0.403496	0.216457	1.282547	-0.468546	0.343061	1.223610	-0.496229	0.171672	1.213770	-0.566191	0.159632	1.022563	-0.592184	0.289871	1.203524	-0.531783
2249	18.741667	0.359790	1.011546	-0.308989	0.333256	1.195657	-0.500812	0.440519	0.850718	-0.166017	0.450876	0.867667	-0.154917	0.430162	0.833770	-0.177118	0.170722	1.314508	-0.510082	0.333638	1.032318	-0.287872	0.389833	1.012491	-0.294417	0.144755	1.096469	-0.412245	0.184123	1.211257	-0.560884	0.299812	1.242549	-0.517606	0.196325	1.136658	-0.403525	0.216534	1.282324	-0.468269	0.343113	1.223538	-0.496388	0.171562	1.213747	-0.566035	0.159525	1.022561	-0.592182	0.289853	1.203503	-0.531868
2250	18.750000	0.359857	1.010194	-0.310387	0.333214	1.195473	-0.500973	0.440547	0.848430	-0.168454	0.450838	0.865313	-0.157193	0.430256	0.831547	-0.179714	0.170682	1.314441	-0.509823	0.333645	1.030857	-0.289019	0.389842	1.011076	-0.295691	0.144850	1.096310	-0.412156	0.184020	1.211238	-0.560739	0.299798	1.242519	-0.517624	0.196609	1.136257	-0.403620	0.216623	1.282121	-0.467975	0.343153	1.223458	-0.496564	0.171452	1.213732	-0.565871	0.159386	1.022571	-0.592181	0.289818	1.203513	-0.531980
2251	18.758333	0.359981	1.008793	-0.311918	0.333180	1.195290	-0.501135	0.440544	0.846031	-0.171058	0.450784	0.862839	-0.159640	0.430305	0.829223	-0.182476	0.170666	1.314382	-0.509555	0.333667	1.029343	-0.290222	0.389866	1.009612	-0.297027	0.144935	1.096161	-0.412062	0.183919	1.211226	-0.560589	0.299780	1.242504	-0.517644	0.196855	1.135848	-0.403768	0.216721	1.281935	-0.467665	0.343184	1.223371	-0.496750	0.171344	1.213727	-0.565701	0.159214	1.022593	-0.592179	0.289766	1.203548	-0.532110
2252	18.766667	0.360131	1.007362	-0.313517	0.333157	1.195111	-0.501295	0.440523	0.843508	-0.173829	0.450726	0.860230	-0.162252	0.430320	0.826787	-0.185407	0.170668	1.314332	-0.509283	0.333713	1.027783	-0.291475	0.389913	1.008106	-0.298421	0.145006	1.096025	-0.411965	0.183819	1.211221	-0.560434	0.299762	1.242496	-0.517657	0.197076	1.135433	-0.403947	0.216826	1.281755	-0.467339	0.343210	1.223275	-0.496936	0.171238	1.213731	-0.565527	0.159012	1.022626	-0.592172	0.289706	1.203597	-0.532248
2253	18.775000	0.360297	1.005915	-0.315145	0.333145	1.194933	-0.501450	0.440491	0.840864	-0.176759	0.450674	0.857486	-0.165022	0.430308	0.824243	-0.188497	0.170681	1.314290	-0.509008	0.333790	1.026184	-0.292772	0.389992	1.006564	-0.299867	0.145057	1.095900	-0.411865	0.183717	1.211223	-0.560276	0.299744	1.242485	-0.517660	0.197282	1.135013	-0.404133	0.216937	1.281575	-0.466998	0.343232	1.223169	-0.497114	0.171131	1.213743	-0.565349	0.158787	1.022669	-0.592161	0.289641	1.203647	-0.532379
2254	18.783333	0.360464	1.004453	-0.316781	0.333146	1.194756	-0.501598	0.440462	0.838110	-0.179838	0.450643	0.854619	-0.167940	0.430282	0.821601	-0.191735	0.170692	1.314257	-0.508730	0.333905	1.024547	-0.294109	0.390106	1.004985	-0.301367	0.145087	1.095787	-0.411763	0.183611	1.211233	-0.560114	0.299725	1.242463	-0.517645	0.197486	1.134594	-0.404296	0.217051	1.281389	-0.466643	0.343254	1.223052	-0.497274	0.171019	1.213764	-0.565168	0.158547	1.022722	-0.592147	0.289574	1.203686	-0.532490
2255	18.791667	0.360609	1.002971	-0.318409	0.333160	1.194577	-0.501740	0.440457	0.835255	-0.183061	0.450649	0.851641	-0.171004	0.430265	0.818869	-0.195118	0.170690	1.314232	-0.508446	0.334057	1.022877	-0.295485	0.390253	1.003368	-0.302921	0.145095	1.095680	-0.411662	0.183496	1.211252	-0.559946	0.299704	1.242422	-0.517608	0.197699	1.134181	-0.404401	0.217164	1.281192	-0.466270	0.343275	1.222924	-0.497410	0.170899	1.213795	-0.564983	0.158301	1.022785	-0.592133	0.289505	1.203701	-0.532567
2256	18.800000	0.360723	1.001455	-0.320032	0.333187	1.194395	-0.501876	0.440490	0.832313	-0.186422	0.450702	0.848568	-0.174205	0.430278	0.816058	-0.198639	0.170665	1.314215	-0.508155	0.334243	1.021177	-0.296894	0.390427	1.001707	-0.304531	0.145088	1.095577	-0.411560	0.183370	1.211281	-0.559773	0.299677	1.242356	-0.517543	0.197937	1.133779	-0.404419	0.217274	1.280979	-0.465875	0.343295	1.222787	-0.497516	0.170768	1.213834	-0.564792	0.158058	1.022857	-0.592119	0.289432	1.203683	-0.532597
2257	18.808333	0.360827	0.999898	-0.321677	0.333221	1.194206	-0.502005	0.440561	0.829304	-0.189905	0.450801	0.845422	-0.177530	0.430321	0.813187	-0.202279	0.170619	1.314201	-0.507857	0.334463	1.019449	-0.298335	0.390621	1.000000	-0.306202	0.145069	1.095474	-0.411457	0.183231	1.211316	-0.559593	0.299639	1.242266	-0.517450	0.198213	1.133380	-0.404342	0.217376	1.280747	-0.465454	0.343312	1.222645	-0.497595	0.170625	1.213878	-0.564596	0.157818	1.022933	-0.592104	0.289355	1.203634	-0.532581
2258	18.816667	0.360958	0.998297	-0.323373	0.333256	1.194012	-0.502124	0.440660	0.826249	-0.193486	0.450937	0.842225	-0.180960	0.430382	0.810274	-0.206012	0.170559	1.314186	-0.507550	0.334713	1.017694	-0.299804	0.390832	0.998242	-0.307936	0.145044	1.095367	-0.411351	0.183085	1.211350	-0.559406	0.299592	1.242160	-0.517337	0.198541	1.132962	-0.404194	0.217466	1.280482	-0.465008	0.343330	1.222509	-0.497658	0.170474	1.213922	-0.564394	0.157578	1.023010	-0.592086	0.289278	1.203560	-0.532530
2259	18.825000	0.361130	0.996659	-0.325127	0.333286	1.193812	-0.502230	0.440779	0.823160	-0.197153	0.451107	0.838989	-0.184484	0.430452	0.807330	-0.209823	0.170500	1.314164	-0.507234	0.334989	1.015910	-0.301304	0.391055	0.996431	-0.309737	0.145021	1.095250	-0.411241	0.182936	1.211380	-0.559214	0.299536	1.242051	-0.517219	0.198933	1.132488	-0.404029	0.217541	1.280173	-0.464541	0.343353	1.222390	-0.497723	0.170320	1.213961	-0.564184	0.157333	1.023083	-0.592067	0.289210	1.203479	-0.532474
